<mxfile host="app.diagrams.net" modified="2024-05-18T18:38:08.135Z" agent="Mozilla/5.0 (Windows NT 10.0; Win64; x64) AppleWebKit/537.36 (KHTML, like Gecko) Chrome/125.0.0.0 Safari/537.36" etag="HUonwPTjqvwwS_Q2PVuN" version="24.4.4" type="device">
  <diagram name="Page-1" id="tE25M2A9QQnM-06_wwDH">
    <mxGraphModel dx="2083" dy="2494" grid="1" gridSize="10" guides="1" tooltips="1" connect="1" arrows="1" fold="1" page="1" pageScale="1" pageWidth="850" pageHeight="1100" math="0" shadow="0">
      <root>
        <mxCell id="0" />
        <mxCell id="1" parent="0" />
        <mxCell id="h0jbhoHPBvDqZRhp5Esi-1" value="" style="shape=folder;fontStyle=1;spacingTop=10;tabWidth=40;tabHeight=14;tabPosition=left;html=1;whiteSpace=wrap;" vertex="1" parent="1">
          <mxGeometry width="950" height="1490" as="geometry" />
        </mxCell>
        <mxCell id="h0jbhoHPBvDqZRhp5Esi-2" value="" style="shape=folder;fontStyle=1;spacingTop=10;tabWidth=40;tabHeight=14;tabPosition=left;html=1;whiteSpace=wrap;" vertex="1" parent="1">
          <mxGeometry x="960" width="1070" height="1490" as="geometry" />
        </mxCell>
        <mxCell id="h0jbhoHPBvDqZRhp5Esi-3" value="Server" style="html=1;whiteSpace=wrap;" vertex="1" parent="1">
          <mxGeometry y="-30" width="110" height="50" as="geometry" />
        </mxCell>
        <mxCell id="h0jbhoHPBvDqZRhp5Esi-4" value="Field" style="html=1;whiteSpace=wrap;" vertex="1" parent="1">
          <mxGeometry x="960" y="-30" width="110" height="50" as="geometry" />
        </mxCell>
        <mxCell id="h0jbhoHPBvDqZRhp5Esi-5" value="" style="shape=folder;fontStyle=1;spacingTop=10;tabWidth=40;tabHeight=14;tabPosition=left;html=1;whiteSpace=wrap;" vertex="1" parent="1">
          <mxGeometry x="50" y="110" width="450" height="290" as="geometry" />
        </mxCell>
        <mxCell id="h0jbhoHPBvDqZRhp5Esi-6" value="User Managment" style="html=1;whiteSpace=wrap;" vertex="1" parent="1">
          <mxGeometry x="50" y="80" width="110" height="50" as="geometry" />
        </mxCell>
        <mxCell id="h0jbhoHPBvDqZRhp5Esi-14" value="" style="shape=folder;fontStyle=1;spacingTop=10;tabWidth=40;tabHeight=14;tabPosition=left;html=1;whiteSpace=wrap;" vertex="1" parent="1">
          <mxGeometry x="1020" y="80" width="490" height="340" as="geometry" />
        </mxCell>
        <mxCell id="h0jbhoHPBvDqZRhp5Esi-15" value="Sensors Managment" style="html=1;whiteSpace=wrap;" vertex="1" parent="1">
          <mxGeometry x="1020" y="50" width="110" height="50" as="geometry" />
        </mxCell>
        <mxCell id="h0jbhoHPBvDqZRhp5Esi-16" value="Measurements" style="shape=folder;fontStyle=1;spacingTop=10;tabWidth=40;tabHeight=14;tabPosition=left;html=1;whiteSpace=wrap;" vertex="1" parent="1">
          <mxGeometry x="1060" y="130" width="110" height="70" as="geometry" />
        </mxCell>
        <mxCell id="h0jbhoHPBvDqZRhp5Esi-17" value="" style="shape=folder;fontStyle=1;spacingTop=10;tabWidth=40;tabHeight=14;tabPosition=left;html=1;whiteSpace=wrap;" vertex="1" parent="1">
          <mxGeometry x="90" y="600" width="640" height="290" as="geometry" />
        </mxCell>
        <mxCell id="h0jbhoHPBvDqZRhp5Esi-18" value="UI" style="html=1;whiteSpace=wrap;" vertex="1" parent="1">
          <mxGeometry x="90" y="560" width="110" height="50" as="geometry" />
        </mxCell>
        <mxCell id="h0jbhoHPBvDqZRhp5Esi-20" value="" style="shape=folder;fontStyle=1;spacingTop=10;tabWidth=40;tabHeight=14;tabPosition=left;html=1;whiteSpace=wrap;" vertex="1" parent="1">
          <mxGeometry x="90" y="680" width="260" height="160" as="geometry" />
        </mxCell>
        <mxCell id="h0jbhoHPBvDqZRhp5Esi-21" value="" style="shape=folder;fontStyle=1;spacingTop=10;tabWidth=40;tabHeight=14;tabPosition=left;html=1;whiteSpace=wrap;" vertex="1" parent="1">
          <mxGeometry x="380" y="690" width="320" height="150" as="geometry" />
        </mxCell>
        <mxCell id="h0jbhoHPBvDqZRhp5Esi-22" value="Farm contol" style="shape=folder;fontStyle=1;spacingTop=10;tabWidth=40;tabHeight=14;tabPosition=left;html=1;whiteSpace=wrap;" vertex="1" parent="1">
          <mxGeometry x="120" y="720" width="70" height="50" as="geometry" />
        </mxCell>
        <mxCell id="h0jbhoHPBvDqZRhp5Esi-23" value="System tracking" style="shape=folder;fontStyle=1;spacingTop=10;tabWidth=40;tabHeight=14;tabPosition=left;html=1;whiteSpace=wrap;" vertex="1" parent="1">
          <mxGeometry x="400" y="720" width="70" height="50" as="geometry" />
        </mxCell>
        <mxCell id="h0jbhoHPBvDqZRhp5Esi-24" value="User approval" style="shape=folder;fontStyle=1;spacingTop=10;tabWidth=40;tabHeight=14;tabPosition=left;html=1;whiteSpace=wrap;" vertex="1" parent="1">
          <mxGeometry x="560" y="715" width="90" height="60" as="geometry" />
        </mxCell>
        <mxCell id="h0jbhoHPBvDqZRhp5Esi-25" value="Admin" style="html=1;whiteSpace=wrap;" vertex="1" parent="1">
          <mxGeometry x="380" y="660" width="110" height="50" as="geometry" />
        </mxCell>
        <mxCell id="h0jbhoHPBvDqZRhp5Esi-26" value="Ordinary user" style="html=1;whiteSpace=wrap;" vertex="1" parent="1">
          <mxGeometry x="90" y="650" width="120" height="50" as="geometry" />
        </mxCell>
        <mxCell id="h0jbhoHPBvDqZRhp5Esi-28" value="Authentication" style="shape=folder;fontStyle=1;spacingTop=10;tabWidth=40;tabHeight=14;tabPosition=left;html=1;whiteSpace=wrap;" vertex="1" parent="1">
          <mxGeometry x="90" y="170" width="110" height="100" as="geometry" />
        </mxCell>
        <mxCell id="h0jbhoHPBvDqZRhp5Esi-29" value="Authorization" style="shape=folder;fontStyle=1;spacingTop=10;tabWidth=40;tabHeight=14;tabPosition=left;html=1;whiteSpace=wrap;" vertex="1" parent="1">
          <mxGeometry x="230" y="180" width="170" height="90" as="geometry" />
        </mxCell>
        <mxCell id="h0jbhoHPBvDqZRhp5Esi-30" value="Registration" style="shape=folder;fontStyle=1;spacingTop=10;tabWidth=40;tabHeight=14;tabPosition=left;html=1;whiteSpace=wrap;" vertex="1" parent="1">
          <mxGeometry x="90" y="290" width="110" height="90" as="geometry" />
        </mxCell>
        <mxCell id="h0jbhoHPBvDqZRhp5Esi-32" value="" style="shape=folder;fontStyle=1;spacingTop=10;tabWidth=40;tabHeight=14;tabPosition=left;html=1;whiteSpace=wrap;" vertex="1" parent="1">
          <mxGeometry x="590" y="340" width="300" height="230" as="geometry" />
        </mxCell>
        <mxCell id="h0jbhoHPBvDqZRhp5Esi-33" value="Control sensors" style="html=1;whiteSpace=wrap;" vertex="1" parent="1">
          <mxGeometry x="590" y="310" width="110" height="50" as="geometry" />
        </mxCell>
        <mxCell id="h0jbhoHPBvDqZRhp5Esi-31" value="Sensors tracking" style="shape=folder;fontStyle=1;spacingTop=10;tabWidth=40;tabHeight=14;tabPosition=left;html=1;whiteSpace=wrap;" vertex="1" parent="1">
          <mxGeometry x="610" y="410" width="70" height="50" as="geometry" />
        </mxCell>
        <mxCell id="h0jbhoHPBvDqZRhp5Esi-34" value="Reports" style="shape=folder;fontStyle=1;spacingTop=10;tabWidth=40;tabHeight=14;tabPosition=left;html=1;whiteSpace=wrap;" vertex="1" parent="1">
          <mxGeometry x="220" y="725" width="70" height="50" as="geometry" />
        </mxCell>
        <mxCell id="h0jbhoHPBvDqZRhp5Esi-35" value="Calculate plans" style="shape=folder;fontStyle=1;spacingTop=10;tabWidth=40;tabHeight=14;tabPosition=left;html=1;whiteSpace=wrap;" vertex="1" parent="1">
          <mxGeometry x="740" y="410" width="70" height="50" as="geometry" />
        </mxCell>
        <mxCell id="h0jbhoHPBvDqZRhp5Esi-36" value="Sensor error" style="shape=folder;fontStyle=1;spacingTop=10;tabWidth=40;tabHeight=14;tabPosition=left;html=1;whiteSpace=wrap;" vertex="1" parent="1">
          <mxGeometry x="620" y="480" width="70" height="50" as="geometry" />
        </mxCell>
        <mxCell id="h0jbhoHPBvDqZRhp5Esi-37" value="Add&amp;nbsp; &amp;nbsp;new sensor" style="shape=folder;fontStyle=1;spacingTop=10;tabWidth=40;tabHeight=14;tabPosition=left;html=1;whiteSpace=wrap;" vertex="1" parent="1">
          <mxGeometry x="1275" y="140" width="155" height="70" as="geometry" />
        </mxCell>
        <mxCell id="h0jbhoHPBvDqZRhp5Esi-38" value="Dron pictures" style="shape=folder;fontStyle=1;spacingTop=10;tabWidth=40;tabHeight=14;tabPosition=left;html=1;whiteSpace=wrap;" vertex="1" parent="1">
          <mxGeometry x="1070" y="270" width="110" height="90" as="geometry" />
        </mxCell>
        <mxCell id="h0jbhoHPBvDqZRhp5Esi-39" value="External system" style="shape=folder;fontStyle=1;spacingTop=10;tabWidth=40;tabHeight=14;tabPosition=left;html=1;whiteSpace=wrap;" vertex="1" parent="1">
          <mxGeometry x="750" y="480" width="70" height="50" as="geometry" />
        </mxCell>
        <mxCell id="h0jbhoHPBvDqZRhp5Esi-40" value="Synchronization" style="shape=folder;fontStyle=1;spacingTop=10;tabWidth=40;tabHeight=14;tabPosition=left;html=1;whiteSpace=wrap;" vertex="1" parent="1">
          <mxGeometry x="570" y="950" width="190" height="130" as="geometry" />
        </mxCell>
        <mxCell id="h0jbhoHPBvDqZRhp5Esi-41" value="" style="shape=folder;fontStyle=1;spacingTop=10;tabWidth=40;tabHeight=14;tabPosition=left;html=1;whiteSpace=wrap;" vertex="1" parent="1">
          <mxGeometry x="310" y="980" width="190" height="110" as="geometry" />
        </mxCell>
        <mxCell id="h0jbhoHPBvDqZRhp5Esi-42" value="Db connection" style="html=1;whiteSpace=wrap;" vertex="1" parent="1">
          <mxGeometry x="310" y="940" width="110" height="50" as="geometry" />
        </mxCell>
      </root>
    </mxGraphModel>
  </diagram>
</mxfile>
